HIERARCHY
ROOT Hips
{
  OFFSET 1.44925e-005 102.336 -0.101585
  CHANNELS 6 Xposition Yposition Zposition Zrotation Xrotation Yrotation
  JOINT LeftUpLeg
  {
    OFFSET 8.9458 -8.66707 0.101652
    CHANNELS 3 Zrotation Xrotation Yrotation
    JOINT LeftLeg
    {
      OFFSET 0 -44.4227 1.3727
      CHANNELS 3 Zrotation Xrotation Yrotation
      JOINT LeftFoot
      {
        OFFSET -0.253549 -42.0924 -1.46059
        CHANNELS 3 Zrotation Xrotation Yrotation
        JOINT LeftToes
        {
          OFFSET -0.04 -4.41509 8.4991
          CHANNELS 3 Zrotation Xrotation Yrotation
          End Site
          {
            OFFSET 0.08 -0.047448 9.77979
          }
        }
      }
    }
  }
  JOINT Spine
  {
    OFFSET 0 11.8905 0
    CHANNELS 3 Zrotation Xrotation Yrotation
    JOINT Spine1
    {
      OFFSET 0 25.6574 0.127663
      CHANNELS 3 Zrotation Xrotation Yrotation
      JOINT RightShoulder
      {
        OFFSET -8.99 -0.362252 -0.22
        CHANNELS 3 Zrotation Xrotation Yrotation
        JOINT RightArm
        {
          OFFSET -10.2827 -0.00338 0.322123
          CHANNELS 3 Zrotation Xrotation Yrotation
          JOINT RightForeArm
          {
            OFFSET -26.364 0.099144 -1.42434
            CHANNELS 3 Zrotation Xrotation Yrotation
            JOINT RightHand
            {
              OFFSET -22.0324 0.085362 1.02216
              CHANNELS 3 Zrotation Xrotation Yrotation
              End Site
              {
                OFFSET -13.3284 -0.6 1.50291
              }
            }
          }
        }
      }
      JOINT LeftShoulder1
      {
        OFFSET 8.99 -0.362252 -0.22
        CHANNELS 3 Zrotation Xrotation Yrotation
        JOINT LeftArm
        {
          OFFSET 10.2827 -0.00337999 0.322123
          CHANNELS 3 Zrotation Xrotation Yrotation
          JOINT LeftForeArm
          {
            OFFSET 26.2597 0.099144 -1.42434
            CHANNELS 3 Zrotation Xrotation Yrotation
            JOINT LeftHand
            {
              OFFSET 22.0902 0.085362 1.02216
              CHANNELS 3 Zrotation Xrotation Yrotation
              End Site
              {
                OFFSET 13.419 -0.6 1.50291
              }
            }
          }
        }
      }
      JOINT Head
      {
        OFFSET 0 8.73416 0.011341
        CHANNELS 3 Zrotation Xrotation Yrotation
        End Site
        {
          OFFSET -0.29 12.7742 2.51395
        }
      }
    }
  }
  JOINT RightUpLeg
  {
    OFFSET -8.9458 -8.66707 0.101652
    CHANNELS 3 Zrotation Xrotation Yrotation
    JOINT RightLeg
    {
      OFFSET 0 -44.4227 1.3727
      CHANNELS 3 Zrotation Xrotation Yrotation
      JOINT RightFoot
      {
        OFFSET 0.253549 -42.0924 -1.46059
        CHANNELS 3 Zrotation Xrotation Yrotation
        JOINT RightToes
        {
          OFFSET 0.04 -4.41509 8.4991
          CHANNELS 3 Zrotation Xrotation Yrotation
          End Site
          {
            OFFSET -0.08 -0.137448 9.77979
          }
        }
      }
    }
  }
}
MOTION
Frames:	17
Frame Time:	0.0333333
174.226 100.273 15.1522 -4.89198 0.401058 -87.3099 -2.06728 7.94229 3.9595 0.627462 17.3868 15.159 -6.97109 -25.447 -0.983188 -1.33454e-009 8.75221e-006 -1.46516e-008 3.00127 13.9003 1.0027 -5.81749 -2.38357 2.30135 26.4949 1.1884 -0.5289 36.8842 -15.1731 55.8676 4.32713 17.5696 21.7169 -14.9834 8.93247 2.4652 -44.0829 3.37325 -3.14812 -24.1755 -19.3419 23.5867 -14.7573 50.4047 1.36396 5.82328 9.61819 -0.917488 0.257264 -12.7084 -11.145 -8.56519 -38.8633 -13.8254 -1.61308 56.6425 -16.0982 13.4361 -12.7905 0.407431 0.0462048 0.000530889 0.662642 
172.233 100.031 15.1842 -4.68373 0.148227 -87.6296 -2.39759 9.8309 4.11114 0.45203 15.7688 15.4841 -7.46536 -25.7319 -1.08116 -1.33454e-009 8.75221e-006 -1.46516e-008 2.87689 13.8387 0.723643 -5.75197 -2.21703 2.02257 26.4486 1.22933 -0.399776 35.8791 -12.8814 53.3498 5.15451 16.0039 21.2884 -15.7336 8.88161 2.46096 -44.2019 3.37628 -3.13701 -23.5235 -21.325 20.0061 -16.8822 49.2164 5.30244 5.82328 9.61819 -0.917488 0.110496 -13.0635 -10.5799 -8.15466 -38.0457 -13.2453 -1.3583 49.6311 -15.8704 13.6585 -13.2996 0.476537 0.0462048 0.000530889 0.662642 
169.989 99.6407 15.1737 -4.48239 -0.15782 -88.0822 -2.83046 11.7366 4.31173 0.30084 14.4941 16.1325 -7.36026 -26.0076 -1.08083 -1.33454e-009 8.75221e-006 -1.46516e-008 2.69659 13.7557 0.379901 -5.60443 -2.29158 1.62851 27.5608 1.32242 -0.223076 34.4787 -10.2365 50.0624 6.15855 15.4473 19.3497 -15.7047 8.93197 2.07889 -44.2316 3.37701 -3.13419 -23.9055 -22.5489 15.0567 -18.5886 48.3056 8.66256 5.82328 9.61819 -0.917488 0.078956 -12.5706 -9.51357 -7.34078 -36.5706 -11.7159 -1.14903 42.2511 -15.1584 13.2975 -13.5823 0.490244 0.0462048 0.000530889 0.662642 
167.445 98.984 15.119 -4.38421 -0.377052 -88.752 -3.24291 13.5343 4.58424 0.260242 14.1538 17.0662 -6.86741 -26.8332 -1.04699 -1.33454e-009 8.75221e-006 -1.46516e-008 2.58589 13.6402 -0.0104494 -5.35107 -2.39428 1.16653 29.3832 1.45077 -0.025685 34.7857 -8.99032 46.0792 7.14288 18.1031 16.3345 -14.77 9.06019 1.52007 -44.3255 3.39224 -3.1506 -24.9882 -23.3181 8.95793 -20.0394 48.5346 10.9532 5.82328 9.61819 -0.917488 -0.180664 -11.8167 -8.08138 -6.09628 -34.7184 -9.04628 -1.00707 35.7652 -14.4532 13.3896 -14.1343 0.558939 0.0462048 0.000530889 0.662642 
164.612 98.1011 14.962 -4.45643 -0.444163 -89.3737 -3.44911 15.3163 4.95989 0.270188 14.6517 17.6411 -7.2658 -28.4223 -1.21798 -1.33454e-009 8.75221e-006 -1.46516e-008 2.17788 13.3463 -0.407126 -4.41569 -2.08167 0.559827 31.2822 1.57484 0.132133 37.2328 -10.2076 41.0676 8.27216 24.0424 12.5819 -13.6653 9.17508 1.08583 -44.3017 3.4114 -3.19159 -26.9415 -24.024 1.62762 -20.9708 48.6253 12.3402 5.82328 9.61819 -0.917488 -0.870709 -11.5142 -6.63494 -4.63648 -32.4004 -6.04035 -0.94837 31.0416 -14.3188 13.9794 -15.1464 0.711685 0.0462048 0.000530889 0.662642 
161.516 97.2114 14.6283 -4.46355 -0.3386 -89.5011 -3.12646 16.9857 5.49222 0.340103 15.5538 17.354 -8.5277 -29.9533 -1.57155 -1.33454e-009 8.75221e-006 -1.46516e-008 1.35377 12.9006 -0.8548 -2.39328 -1.6592 -0.335469 33.0504 1.66219 0.191132 40.6113 -14.2208 34.7365 9.92944 31.8222 7.76572 -13.1772 9.23389 0.789822 -43.9567 3.41565 -3.25002 -29.8191 -24.9098 -6.75003 -21.456 48.1843 13.4438 5.82328 9.61819 -0.917488 -1.73131 -11.352 -5.30959 -3.06054 -29.8934 -3.90651 -0.940934 28.2708 -14.6657 13.3271 -15.1149 0.666681 0.0462048 0.000530889 0.662642 
158.17 96.4654 14.1341 -4.25903 0.241573 -89.2025 -2.0279 18.3238 6.00638 0.737326 16.9888 16.5374 -9.98606 -30.6165 -1.93101 -1.33454e-009 8.75221e-006 -1.46516e-008 0.823847 12.7042 -1.51058 0.154006 -1.83421 -1.50652 34.8216 1.7146 0.157196 42.6913 -19.9707 27.135 12.2707 39.1529 1.44684 -13.3696 9.2652 0.402097 -43.4573 3.41097 -3.31425 -32.9868 -25.5191 -15.3267 -21.5879 48.1506 13.9046 5.82328 9.61819 -0.917488 -2.43553 -10.9897 -3.72625 -1.14909 -28.1813 -2.92001 -0.950732 27.91 -14.9356 10.1937 -12.5552 0.251306 0.0462048 0.000530889 0.662642 
154.637 95.8375 13.5794 -4.16827 1.60587 -89.1375 -0.157171 19.2427 5.44548 1.24389 19.8607 16.3086 -12.9503 -30.5543 -2.55582 -1.33454e-009 8.75221e-006 -1.46516e-008 1.18057 13.1257 -2.44746 2.48645 -2.41808 -2.78924 36.5569 1.75271 0.0937543 41.7135 -24.4039 18.4111 14.3451 43.6272 -5.17363 -13.6148 9.32593 -0.269724 -43.0105 3.40842 -3.37597 -35.4913 -25.4943 -23.0649 -20.7974 48.7456 12.3652 5.82328 9.61819 -0.917488 -2.83217 -11.2203 -1.4904 1.12081 -27.7965 -2.74727 -0.954415 30.4386 -14.5667 5.82178 -9.04033 -0.112359 0.0462048 0.000530889 0.662642 
151.003 95.2794 13.0032 -4.44578 3.22373 -89.3394 2.19215 19.3291 3.47996 1.07735 25.2903 17.2049 -18.0889 -29.5835 -3.47227 -1.33454e-009 8.75221e-006 -1.46516e-008 1.80529 13.9353 -3.51696 4.74886 -2.64269 -4.07075 37.8866 1.78288 0.049644 38.5928 -28.3428 8.88073 16.1911 47.7774 -10.6862 -13.3982 9.41738 -1.03292 -42.4051 3.38047 -3.41108 -37.3129 -25.1524 -29.6195 -18.544 48.9786 8.42555 5.82328 9.61819 -0.917488 -2.737 -12.5849 1.15137 3.22181 -27.8244 -3.38824 -0.965337 34.7613 -13.5427 2.36214 -8.24687 -0.17178 0.0462048 0.000530889 0.662642 
147.35 94.9921 12.3624 -4.74304 4.61072 -89.4752 4.40811 17.7023 2.97197 1.10789 33.3493 17.798 -20.7701 -25.4918 -3.25607 -1.33454e-009 8.75221e-006 -1.46516e-008 1.85204 14.6365 -4.43687 7.30587 -2.62856 -5.2394 38.4352 1.79753 0.0370258 33.5982 -30.1707 -2.30169 16.6091 50.5278 -12.262 -12.8737 9.47428 -1.38967 -41.2529 3.28215 -3.38446 -39.2636 -24.7427 -35.2011 -15.3424 48.2073 3.24782 5.82328 9.61819 -0.917488 -2.07762 -13.8748 3.47726 4.72269 -26.9269 -4.82415 -0.971901 38.2212 -12.3912 0.578711 -11.05 -0.176285 0.0462048 0.000530889 0.662642 
143.812 95.0298 11.667 -4.68304 5.62957 -89.2447 6.17129 13.5077 2.92667 1.39532 43.6781 19.9757 -16.6243 -17.0597 -1.37396 -1.33454e-009 8.75221e-006 -1.46516e-008 1.7196 15.1402 -5.17416 9.5631 -3.12564 -6.09666 38.25 1.79687 0.0497559 28.4914 -28.9746 -14.6307 14.6347 50.1842 -8.83728 -12.2617 9.47812 -1.20971 -39.5498 3.11639 -3.29515 -40.8302 -23.2586 -39.6538 -11.6008 45.8802 -2.73294 5.82328 9.61819 -0.917488 -1.16153 -13.7642 4.98667 5.83905 -25.1941 -6.33847 -0.964407 39.7708 -11.6308 0.131222 -14.8478 -0.209166 0.0462048 0.000530889 0.662642 
140.541 95.2224 11.0272 -4.53209 6.41664 -88.7743 7.33543 7.60943 2.40775 1.78746 54.6232 22.2866 -9.81928 -7.99153 0.0256402 -1.33454e-009 8.75221e-006 -1.46516e-008 2.33148 15.5937 -5.89945 10.5488 -3.80503 -6.58673 37.8133 1.78908 0.0681309 25.0472 -26.7274 -25.6345 12.2 47.9015 -4.07045 -11.4073 9.47722 -0.855575 -37.6704 2.92754 -3.17043 -39.5556 -19.0024 -42.5165 -7.34752 40.2758 -9.77283 5.82328 9.61819 -0.917488 -0.297033 -12.9352 5.70522 6.98621 -23.2772 -6.92426 -0.975761 40.2687 -11.6478 0.35438 -17.4305 -0.206111 0.0462048 0.000530889 0.662642 
137.404 95.6922 10.5016 -4.80032 6.68646 -88.4207 7.4652 1.92365 1.6994 2.40135 64.2083 22.4681 -6.8845 -4.00559 0.243697 -1.33454e-009 8.75221e-006 -1.46516e-008 3.09937 15.7966 -6.53401 10.2084 -3.61916 -6.87304 37.5595 1.78717 0.0874999 23.0278 -25.5399 -33.3153 10.943 46.4513 -1.67639 -10.3844 9.49605 -0.593048 -35.9894 2.75235 -3.03038 -35.1796 -12.9434 -44.4261 -3.64628 32.0867 -16.4473 5.82328 9.61819 -0.917488 0.354559 -12.7675 5.91905 7.84328 -20.6408 -6.53414 -0.998958 39.8544 -12.3151 0.667254 -18.9628 -0.180408 0.0462048 0.000530889 0.662642 
134.151 96.5049 10.0699 -5.3724 6.16995 -88.4259 6.32788 -2.91794 1.20125 3.20702 71.3717 20.532 -7.19897 -5.46475 0.152734 -1.33454e-009 8.75221e-006 -1.46516e-008 2.91289 15.5751 -6.77859 9.45934 -2.69715 -7.01186 37.5603 1.79797 0.111778 21.5371 -25.5605 -37.691 10.653 46.7296 -1.82615 -9.71867 9.51509 -0.478721 -34.6629 2.60601 -2.88913 -31.9006 -9.28108 -46.2027 -1.10693 26.7929 -21.2707 5.82328 9.61819 -0.917488 0.603598 -12.996 5.85015 7.85816 -16.8739 -6.15624 -0.997933 38.1599 -12.7373 0.763087 -20.3641 -0.170573 0.0462048 0.000530889 0.662642 
130.907 97.3388 9.72609 -5.69129 5.33931 -88.706 4.60003 -7.67183 0.728592 4.06175 75.8841 17.8437 -7.89324 -8.35799 -0.0118401 -1.33454e-009 8.75221e-006 -1.46516e-008 2.29931 15.2269 -6.68171 9.04349 -2.19812 -6.88081 37.6834 1.81126 0.131527 20.3694 -25.7523 -39.9025 10.6631 47.2636 -2.49245 -9.6358 9.52489 -0.561091 -33.7423 2.49887 -2.77037 -32.2659 -9.22028 -47.3777 0.576744 26.6141 -24.4047 5.82328 9.61819 -0.917488 0.389601 -12.4847 5.66824 7.31584 -13.0299 -6.35686 -0.963988 35.8327 -12.3674 0.74118 -21.5895 -0.172941 0.0462048 0.000530889 0.662642 
127.713 98.0956 9.45646 -5.63847 4.55176 -89.3318 2.81585 -12.584 0.225651 4.55067 77.7453 16.6866 -7.52176 -10.0526 -0.113033 -1.33454e-009 8.75221e-006 -1.46516e-008 1.81997 14.9637 -6.26279 8.75391 -2.57581 -6.40205 37.7176 1.81841 0.144869 20.0049 -25.47 -40.472 10.4773 46.8307 -2.05748 -9.68009 9.53373 -0.704452 -33.3292 2.44877 -2.70972 -34.0882 -10.2994 -47.462 1.67671 28.1878 -26.5668 5.82328 9.61819 -0.917488 -0.0813318 -11.4103 5.50356 6.66834 -9.66839 -6.43563 -0.763756 33.4282 -11.7631 0.794944 -22.2012 -0.165996 0.0462048 0.000530889 0.662642 
124.465 98.8792 9.23247 -5.54467 3.67273 -90.4696 1.15543 -16.9578 0.0544123 4.25369 76.8025 17.376 -7.31159 -11.5128 -0.197449 -1.33454e-009 8.75221e-006 -1.46516e-008 1.13711 14.6889 -5.45922 8.13897 -3.1887 -5.66228 37.4642 1.81813 0.166259 20.7556 -25.0584 -39.1802 10.1703 45.8247 -0.80398 -9.52724 9.53891 -0.689898 -33.4619 2.46477 -2.72899 -34.6872 -10.674 -46.3834 2.18692 28.754 -27.9049 5.82328 9.61819 -0.917488 -0.564256 -10.7955 5.30301 5.91711 -6.22679 -5.29945 -0.224644 30.6683 -12.0803 0.834902 -22.3234 -0.160681 0.0462048 0.000530889 0.662642 
